<svg xmlns="http://www.w3.org/2000/svg" version="1.1" xmlns:xlink="http://www.w3.org/1999/xlink" xmlns:svgjs="http://svgjs.dev/svgjs" width="1440" height="760" preserveAspectRatio="none" viewBox="0 0 1440 760">
    <g mask="url(&quot;#SvgjsMask1165&quot;)" fill="none">
        <rect width="1440" height="760" x="0" y="0" fill="rgba(0, 0, 0, 1)"></rect>
        <path d="M110.26 99.68L175.22 137.18L175.22 212.18L110.26 249.68L45.31 212.18L45.31 137.18zM240.17 324.68L305.13 362.18L305.13 437.18L240.17 474.68L175.22 437.18L175.22 362.18zM175.22 437.18L240.17 474.68L240.17 549.68L175.22 587.18L110.26 549.68L110.26 474.68zM240.17 549.68L305.13 587.18L305.13 662.18L240.17 699.68L175.22 662.18L175.22 587.18zM305.13 437.18L370.08 474.68L370.08 549.68L305.13 587.18L240.17 549.68L240.17 474.68zM305.13 662.18L370.08 699.68L370.08 774.68L305.13 812.18L240.17 774.68L240.17 699.68zM499.99 549.68L564.94 587.18L564.94 662.18L499.99 699.68L435.03 662.18L435.03 587.18zM499.99 774.68L564.94 812.18L564.94 887.18L499.99 924.68L435.03 887.18L435.03 812.18zM564.94 -12.82L629.89 24.68L629.89 99.68L564.94 137.18L499.99 99.68L499.99 24.68zM759.8 99.68L824.76 137.18L824.76 212.18L759.8 249.68L694.85 212.18L694.85 137.18zM694.85 212.18L759.8 249.68L759.8 324.68L694.85 362.18L629.89 324.68L629.89 249.68zM759.8 774.68L824.76 812.18L824.76 887.18L759.8 924.68L694.85 887.18L694.85 812.18zM824.75 -12.82L889.71 24.68L889.71 99.68L824.75 137.18L759.8 99.68L759.8 24.68zM889.71 99.68L954.66 137.18L954.66 212.18L889.71 249.68L824.75 212.18L824.75 137.18zM824.75 437.18L889.71 474.68L889.71 549.68L824.75 587.18L759.8 549.68L759.8 474.68zM1019.62 549.68L1084.57 587.18L1084.57 662.18L1019.62 699.68L954.66 662.18L954.66 587.18zM1149.52 324.68L1214.48 362.18L1214.48 437.18L1149.52 474.68L1084.57 437.18L1084.57 362.18zM1279.43 549.68L1344.38 587.18L1344.38 662.18L1279.43 699.68L1214.48 662.18L1214.48 587.18z" stroke="rgba(76, 3, 93, 0.64)" stroke-width="2"></path>
        <path d="M102.76 99.68 a7.5 7.5 0 1 0 15 0 a7.5 7.5 0 1 0 -15 0zM167.72 137.18 a7.5 7.5 0 1 0 15 0 a7.5 7.5 0 1 0 -15 0zM167.72 212.18 a7.5 7.5 0 1 0 15 0 a7.5 7.5 0 1 0 -15 0zM102.76 249.68 a7.5 7.5 0 1 0 15 0 a7.5 7.5 0 1 0 -15 0zM37.81 212.18 a7.5 7.5 0 1 0 15 0 a7.5 7.5 0 1 0 -15 0zM37.81 137.18 a7.5 7.5 0 1 0 15 0 a7.5 7.5 0 1 0 -15 0zM232.67 324.68 a7.5 7.5 0 1 0 15 0 a7.5 7.5 0 1 0 -15 0zM297.63 362.18 a7.5 7.5 0 1 0 15 0 a7.5 7.5 0 1 0 -15 0zM297.63 437.18 a7.5 7.5 0 1 0 15 0 a7.5 7.5 0 1 0 -15 0zM232.67 474.68 a7.5 7.5 0 1 0 15 0 a7.5 7.5 0 1 0 -15 0zM167.72 437.18 a7.5 7.5 0 1 0 15 0 a7.5 7.5 0 1 0 -15 0zM167.72 362.18 a7.5 7.5 0 1 0 15 0 a7.5 7.5 0 1 0 -15 0zM232.67 549.68 a7.5 7.5 0 1 0 15 0 a7.5 7.5 0 1 0 -15 0zM167.72 587.18 a7.5 7.5 0 1 0 15 0 a7.5 7.5 0 1 0 -15 0zM102.76 549.68 a7.5 7.5 0 1 0 15 0 a7.5 7.5 0 1 0 -15 0zM102.76 474.68 a7.5 7.5 0 1 0 15 0 a7.5 7.5 0 1 0 -15 0zM297.63 587.18 a7.5 7.5 0 1 0 15 0 a7.5 7.5 0 1 0 -15 0zM297.63 662.18 a7.5 7.5 0 1 0 15 0 a7.5 7.5 0 1 0 -15 0zM232.67 699.68 a7.5 7.5 0 1 0 15 0 a7.5 7.5 0 1 0 -15 0zM167.72 662.18 a7.5 7.5 0 1 0 15 0 a7.5 7.5 0 1 0 -15 0zM362.58 474.68 a7.5 7.5 0 1 0 15 0 a7.5 7.5 0 1 0 -15 0zM362.58 549.68 a7.5 7.5 0 1 0 15 0 a7.5 7.5 0 1 0 -15 0zM362.58 699.68 a7.5 7.5 0 1 0 15 0 a7.5 7.5 0 1 0 -15 0zM362.58 774.68 a7.5 7.5 0 1 0 15 0 a7.5 7.5 0 1 0 -15 0zM297.63 812.18 a7.5 7.5 0 1 0 15 0 a7.5 7.5 0 1 0 -15 0zM232.67 774.68 a7.5 7.5 0 1 0 15 0 a7.5 7.5 0 1 0 -15 0zM492.49 549.68 a7.5 7.5 0 1 0 15 0 a7.5 7.5 0 1 0 -15 0zM557.44 587.18 a7.5 7.5 0 1 0 15 0 a7.5 7.5 0 1 0 -15 0zM557.44 662.18 a7.5 7.5 0 1 0 15 0 a7.5 7.5 0 1 0 -15 0zM492.49 699.68 a7.5 7.5 0 1 0 15 0 a7.5 7.5 0 1 0 -15 0zM427.53 662.18 a7.5 7.5 0 1 0 15 0 a7.5 7.5 0 1 0 -15 0zM427.53 587.18 a7.5 7.5 0 1 0 15 0 a7.5 7.5 0 1 0 -15 0zM492.49 774.68 a7.5 7.5 0 1 0 15 0 a7.5 7.5 0 1 0 -15 0zM557.44 812.18 a7.5 7.5 0 1 0 15 0 a7.5 7.5 0 1 0 -15 0zM557.44 887.18 a7.5 7.5 0 1 0 15 0 a7.5 7.5 0 1 0 -15 0zM492.49 924.68 a7.5 7.5 0 1 0 15 0 a7.5 7.5 0 1 0 -15 0zM427.53 887.18 a7.5 7.5 0 1 0 15 0 a7.5 7.5 0 1 0 -15 0zM427.53 812.18 a7.5 7.5 0 1 0 15 0 a7.5 7.5 0 1 0 -15 0zM557.44 -12.82 a7.5 7.5 0 1 0 15 0 a7.5 7.5 0 1 0 -15 0zM622.39 24.68 a7.5 7.5 0 1 0 15 0 a7.5 7.5 0 1 0 -15 0zM622.39 99.68 a7.5 7.5 0 1 0 15 0 a7.5 7.5 0 1 0 -15 0zM557.44 137.18 a7.5 7.5 0 1 0 15 0 a7.5 7.5 0 1 0 -15 0zM492.49 99.68 a7.5 7.5 0 1 0 15 0 a7.5 7.5 0 1 0 -15 0zM492.49 24.68 a7.5 7.5 0 1 0 15 0 a7.5 7.5 0 1 0 -15 0zM752.3 99.68 a7.5 7.5 0 1 0 15 0 a7.5 7.5 0 1 0 -15 0zM817.26 137.18 a7.5 7.5 0 1 0 15 0 a7.5 7.5 0 1 0 -15 0zM817.26 212.18 a7.5 7.5 0 1 0 15 0 a7.5 7.5 0 1 0 -15 0zM752.3 249.68 a7.5 7.5 0 1 0 15 0 a7.5 7.5 0 1 0 -15 0zM687.35 212.18 a7.5 7.5 0 1 0 15 0 a7.5 7.5 0 1 0 -15 0zM687.35 137.18 a7.5 7.5 0 1 0 15 0 a7.5 7.5 0 1 0 -15 0zM752.3 324.68 a7.5 7.5 0 1 0 15 0 a7.5 7.5 0 1 0 -15 0zM687.35 362.18 a7.5 7.5 0 1 0 15 0 a7.5 7.5 0 1 0 -15 0zM622.39 324.68 a7.5 7.5 0 1 0 15 0 a7.5 7.5 0 1 0 -15 0zM622.39 249.68 a7.5 7.5 0 1 0 15 0 a7.5 7.5 0 1 0 -15 0zM752.3 774.68 a7.5 7.5 0 1 0 15 0 a7.5 7.5 0 1 0 -15 0zM817.26 812.18 a7.5 7.5 0 1 0 15 0 a7.5 7.5 0 1 0 -15 0zM817.26 887.18 a7.5 7.5 0 1 0 15 0 a7.5 7.5 0 1 0 -15 0zM752.3 924.68 a7.5 7.5 0 1 0 15 0 a7.5 7.5 0 1 0 -15 0zM687.35 887.18 a7.5 7.5 0 1 0 15 0 a7.5 7.5 0 1 0 -15 0zM687.35 812.18 a7.5 7.5 0 1 0 15 0 a7.5 7.5 0 1 0 -15 0zM817.25 -12.82 a7.5 7.5 0 1 0 15 0 a7.5 7.5 0 1 0 -15 0zM882.21 24.68 a7.5 7.5 0 1 0 15 0 a7.5 7.5 0 1 0 -15 0zM882.21 99.68 a7.5 7.5 0 1 0 15 0 a7.5 7.5 0 1 0 -15 0zM817.25 137.18 a7.5 7.5 0 1 0 15 0 a7.5 7.5 0 1 0 -15 0zM752.3 24.68 a7.5 7.5 0 1 0 15 0 a7.5 7.5 0 1 0 -15 0zM947.16 137.18 a7.5 7.5 0 1 0 15 0 a7.5 7.5 0 1 0 -15 0zM947.16 212.18 a7.5 7.5 0 1 0 15 0 a7.5 7.5 0 1 0 -15 0zM882.21 249.68 a7.5 7.5 0 1 0 15 0 a7.5 7.5 0 1 0 -15 0zM817.25 212.18 a7.5 7.5 0 1 0 15 0 a7.5 7.5 0 1 0 -15 0zM817.25 437.18 a7.5 7.5 0 1 0 15 0 a7.5 7.5 0 1 0 -15 0zM882.21 474.68 a7.5 7.5 0 1 0 15 0 a7.5 7.5 0 1 0 -15 0zM882.21 549.68 a7.5 7.5 0 1 0 15 0 a7.5 7.5 0 1 0 -15 0zM817.25 587.18 a7.5 7.5 0 1 0 15 0 a7.5 7.5 0 1 0 -15 0zM752.3 549.68 a7.5 7.5 0 1 0 15 0 a7.5 7.5 0 1 0 -15 0zM752.3 474.68 a7.5 7.5 0 1 0 15 0 a7.5 7.5 0 1 0 -15 0zM1012.12 549.68 a7.5 7.5 0 1 0 15 0 a7.5 7.5 0 1 0 -15 0zM1077.07 587.18 a7.5 7.5 0 1 0 15 0 a7.5 7.5 0 1 0 -15 0zM1077.07 662.18 a7.5 7.5 0 1 0 15 0 a7.5 7.5 0 1 0 -15 0zM1012.12 699.68 a7.5 7.5 0 1 0 15 0 a7.5 7.5 0 1 0 -15 0zM947.16 662.18 a7.5 7.5 0 1 0 15 0 a7.5 7.5 0 1 0 -15 0zM947.16 587.18 a7.5 7.5 0 1 0 15 0 a7.5 7.5 0 1 0 -15 0zM1142.02 324.68 a7.5 7.5 0 1 0 15 0 a7.5 7.5 0 1 0 -15 0zM1206.98 362.18 a7.5 7.5 0 1 0 15 0 a7.5 7.5 0 1 0 -15 0zM1206.98 437.18 a7.5 7.5 0 1 0 15 0 a7.5 7.5 0 1 0 -15 0zM1142.02 474.68 a7.5 7.5 0 1 0 15 0 a7.5 7.5 0 1 0 -15 0zM1077.07 437.18 a7.5 7.5 0 1 0 15 0 a7.5 7.5 0 1 0 -15 0zM1077.07 362.18 a7.5 7.5 0 1 0 15 0 a7.5 7.5 0 1 0 -15 0zM1271.93 549.68 a7.5 7.5 0 1 0 15 0 a7.5 7.5 0 1 0 -15 0zM1336.88 587.18 a7.5 7.5 0 1 0 15 0 a7.5 7.5 0 1 0 -15 0zM1336.88 662.18 a7.5 7.5 0 1 0 15 0 a7.5 7.5 0 1 0 -15 0zM1271.93 699.68 a7.5 7.5 0 1 0 15 0 a7.5 7.5 0 1 0 -15 0zM1206.98 662.18 a7.5 7.5 0 1 0 15 0 a7.5 7.5 0 1 0 -15 0zM1206.98 587.18 a7.5 7.5 0 1 0 15 0 a7.5 7.5 0 1 0 -15 0z" fill="rgba(76, 3, 93, 0.64)"></path>
        <path d="M22 103.71L61.84 126.71L61.84 172.71L22 195.71L-17.84 172.71L-17.84 126.71zM22 517.71L61.84 540.71L61.84 586.71L22 609.71L-17.84 586.71L-17.84 540.71zM61.84 586.71L101.68 609.71L101.68 655.71L61.84 678.71L22 655.71L22 609.71zM61.84 724.71L101.68 747.71L101.68 793.71L61.84 816.71L22 793.71L22 747.71zM141.51 172.71L181.35 195.71L181.35 241.71L141.51 264.71L101.68 241.71L101.68 195.71zM101.68 241.71L141.51 264.71L141.51 310.71L101.68 333.71L61.84 310.71L61.84 264.71zM141.51 448.71L181.35 471.71L181.35 517.71L141.51 540.71L101.68 517.71L101.68 471.71zM181.35 103.71L221.19 126.71L221.19 172.71L181.35 195.71L141.51 172.71L141.51 126.71zM221.19 448.71L261.03 471.71L261.03 517.71L221.19 540.71L181.35 517.71L181.35 471.71zM221.19 724.71L261.03 747.71L261.03 793.71L221.19 816.71L181.35 793.71L181.35 747.71zM300.87 34.71L340.71 57.71L340.71 103.71L300.87 126.71L261.03 103.71L261.03 57.71zM261.03 103.71L300.87 126.71L300.87 172.71L261.03 195.71L221.19 172.71L221.19 126.71zM340.71 -34.29L380.54 -11.29L380.54 34.71L340.71 57.71L300.87 34.71L300.87 -11.29zM340.71 241.71L380.54 264.71L380.54 310.71L340.71 333.71L300.87 310.71L300.87 264.71zM380.54 310.71L420.38 333.71L420.38 379.71L380.54 402.71L340.71 379.71L340.71 333.71zM340.71 655.71L380.54 678.71L380.54 724.71L340.71 747.71L300.87 724.71L300.87 678.71zM420.38 -34.29L460.22 -11.29L460.22 34.71L420.38 57.71L380.54 34.71L380.54 -11.29zM420.38 103.71L460.22 126.71L460.22 172.71L420.38 195.71L380.54 172.71L380.54 126.71zM420.38 379.71L460.22 402.71L460.22 448.71L420.38 471.71L380.54 448.71L380.54 402.71zM460.22 586.71L500.06 609.71L500.06 655.71L460.22 678.71L420.38 655.71L420.38 609.71zM500.06 -34.29L539.9 -11.29L539.9 34.71L500.06 57.71L460.22 34.71L460.22 -11.29zM539.9 310.71L579.74 333.71L579.74 379.71L539.9 402.71L500.06 379.71L500.06 333.71zM539.9 724.71L579.74 747.71L579.74 793.71L539.9 816.71L500.06 793.71L500.06 747.71zM579.74 -34.29L619.57 -11.29L619.57 34.71L579.74 57.71L539.9 34.71L539.9 -11.29zM579.74 103.71L619.57 126.71L619.57 172.71L579.74 195.71L539.9 172.71L539.9 126.71zM619.57 172.71L659.41 195.71L659.41 241.71L619.57 264.71L579.74 241.71L579.74 195.71zM579.74 517.71L619.57 540.71L619.57 586.71L579.74 609.71L539.9 586.71L539.9 540.71zM659.41 -34.29L699.25 -11.29L699.25 34.71L659.41 57.71L619.57 34.71L619.57 -11.29zM699.25 448.71L739.09 471.71L739.09 517.71L699.25 540.71L659.41 517.71L659.41 471.71zM659.41 655.71L699.25 678.71L699.25 724.71L659.41 747.71L619.57 724.71L619.57 678.71zM739.09 -34.29L778.93 -11.29L778.93 34.71L739.09 57.71L699.25 34.71L699.25 -11.29zM778.93 34.71L818.77 57.71L818.77 103.71L778.93 126.71L739.09 103.71L739.09 57.71zM739.09 241.71L778.93 264.71L778.93 310.71L739.09 333.71L699.25 310.71L699.25 264.71zM778.93 586.71L818.77 609.71L818.77 655.71L778.93 678.71L739.09 655.71L739.09 609.71zM858.6 34.71L898.44 57.71L898.44 103.71L858.6 126.71L818.77 103.71L818.77 57.71zM818.77 241.71L858.6 264.71L858.6 310.71L818.77 333.71L778.93 310.71L778.93 264.71zM858.6 448.71L898.44 471.71L898.44 517.71L858.6 540.71L818.77 517.71L818.77 471.71zM818.77 517.71L858.6 540.71L858.6 586.71L818.77 609.71L778.93 586.71L778.93 540.71zM898.44 -34.29L938.28 -11.29L938.28 34.71L898.44 57.71L858.6 34.71L858.6 -11.29zM938.28 34.71L978.12 57.71L978.12 103.71L938.28 126.71L898.44 103.71L898.44 57.71zM898.44 379.71L938.28 402.71L938.28 448.71L898.44 471.71L858.6 448.71L858.6 402.71zM938.28 586.71L978.12 609.71L978.12 655.71L938.28 678.71L898.44 655.71L898.44 609.71zM1017.96 310.71L1057.8 333.71L1057.8 379.71L1017.96 402.71L978.12 379.71L978.12 333.71zM978.12 517.71L1017.96 540.71L1017.96 586.71L978.12 609.71L938.28 586.71L938.28 540.71zM1097.63 172.71L1137.47 195.71L1137.47 241.71L1097.63 264.71L1057.8 241.71L1057.8 195.71zM1057.8 241.71L1097.63 264.71L1097.63 310.71L1057.8 333.71L1017.96 310.71L1017.96 264.71zM1097.63 448.71L1137.47 471.71L1137.47 517.71L1097.63 540.71L1057.8 517.71L1057.8 471.71zM1137.47 -34.29L1177.31 -11.29L1177.31 34.71L1137.47 57.71L1097.63 34.71L1097.63 -11.29zM1137.47 103.71L1177.31 126.71L1177.31 172.71L1137.47 195.71L1097.63 172.71L1097.63 126.71zM1217.15 -34.29L1256.99 -11.29L1256.99 34.71L1217.15 57.71L1177.31 34.71L1177.31 -11.29zM1256.99 172.71L1296.83 195.71L1296.83 241.71L1256.99 264.71L1217.15 241.71L1217.15 195.71zM1256.99 586.71L1296.83 609.71L1296.83 655.71L1256.99 678.71L1217.15 655.71L1217.15 609.71zM1217.15 655.71L1256.99 678.71L1256.99 724.71L1217.15 747.71L1177.31 724.71L1177.31 678.71zM1256.99 724.71L1296.83 747.71L1296.83 793.71L1256.99 816.71L1217.15 793.71L1217.15 747.71zM1336.66 34.71L1376.5 57.71L1376.5 103.71L1336.66 126.71L1296.83 103.71L1296.83 57.71zM1336.66 172.71L1376.5 195.71L1376.5 241.71L1336.66 264.71L1296.83 241.71L1296.83 195.71zM1296.83 241.71L1336.66 264.71L1336.66 310.71L1296.83 333.71L1256.99 310.71L1256.99 264.71zM1416.34 34.71L1456.18 57.71L1456.18 103.71L1416.34 126.71L1376.5 103.71L1376.5 57.71zM1376.5 103.71L1416.34 126.71L1416.34 172.71L1376.5 195.71L1336.66 172.71L1336.66 126.71zM1416.34 172.71L1456.18 195.71L1456.18 241.71L1416.34 264.71L1376.5 241.71L1376.5 195.71zM1376.5 241.71L1416.34 264.71L1416.34 310.71L1376.5 333.71L1336.66 310.71L1336.66 264.71zM1456.18 -34.29L1496.02 -11.29L1496.02 34.71L1456.18 57.71L1416.34 34.71L1416.34 -11.29zM1496.02 310.71L1535.86 333.71L1535.86 379.71L1496.02 402.71L1456.18 379.71L1456.18 333.71zM1456.18 517.71L1496.02 540.71L1496.02 586.71L1456.18 609.71L1416.34 586.71L1416.34 540.71zM1496.02 586.71L1535.86 609.71L1535.86 655.71L1496.02 678.71L1456.18 655.71L1456.18 609.71z" stroke="rgba(156, 6, 150, 0.58)" stroke-width="2"></path>
    </g>
    <defs>
        <mask id="SvgjsMask1165">
            <rect width="1440" height="760" fill="#ffffff"></rect>
        </mask>
    </defs>
</svg>